<?xml version="1.0" encoding="utf-8"?>
<!-- Generator: Adobe Illustrator 19.0.0, SVG Export Plug-In . SVG Version: 6.00 Build 0)  -->
<svg version="1.1" xmlns="http://www.w3.org/2000/svg" xmlns:xlink="http://www.w3.org/1999/xlink" x="0px" y="0px"
	 viewBox="0 0 217.8 204.6" style="enable-background:new 0 0 217.8 204.6;" xml:space="preserve">
<style type="text/css">
	.st0{display:none;fill:url(#SVGID_1_);}
	.st1{fill:url(#SVGID_2_);}
</style>
<g id="logo_alternative_version">
</g>
<g id="logo_alternate_version_2">
</g>
<g id="Layer_6">
</g>
<g id="Layer_5">
</g>
<g id="Layer_4">
</g>
<g id="goldemn">
	<linearGradient id="SVGID_1_" gradientUnits="userSpaceOnUse" x1="183.6835" y1="37.1548" x2="78.1644" y2="150.8962">
		<stop  offset="0" style="stop-color:#B3A25B"/>
		<stop  offset="0.2942" style="stop-color:#D9CA7F"/>
		<stop  offset="0.5244" style="stop-color:#F7E99B"/>
		<stop  offset="1" style="stop-color:#CABF6C"/>
	</linearGradient>
	<polygon class="st0" points="170,196.6 108.9,166.4 47.8,196.6 57.8,128 9.5,80.2 75.9,69.6 108.5,9.4 141.8,69.6 208.2,80.2 
		159.9,128 	"/>
	<linearGradient id="SVGID_2_" gradientUnits="userSpaceOnUse" x1="190.753" y1="29.9776" x2="75.253" y2="154.4776">
		<stop  offset="0" style="stop-color:#B3A25B"/>
		<stop  offset="0.2942" style="stop-color:#D9CA7F"/>
		<stop  offset="0.5244" style="stop-color:#F7E99B"/>
		<stop  offset="1" style="stop-color:#CABF6C"/>
	</linearGradient>
	<path class="st1" d="M217.8,77.2l-73-11.7L108.4,0L73,65.6L0,77.2l53,52.4l-11,74.9l66.9-33.1l66.9,33.1l-11-74.9L217.8,77.2z
		 M170,196.6l-61.1-30.2l-61.1,30.2L57.8,128L9.5,80.2l66.4-10.6l32.5-60.2l33.3,60.2l66.4,10.6L159.9,128L170,196.6z M199.1,82.3
		l-61-9L108.4,18L79.6,73.3l-61,9l43.7,44L52.7,189l56.2-28.5l56.2,28.5l-9.6-62.8L199.1,82.3z M66.5,124.9L27,85.1L82.2,77
		l26.2-50.4L135.5,77l55.2,8.1l-39.5,39.8l8.7,57.1L108.9,156l-51.1,25.9L66.5,124.9z M108.6,117.1c0,4.7-1.7,8.8-5.1,12.2
		c-3.4,3.4-7.5,5.1-12.2,5.1c-4.7,0-8.8-1.7-12.2-5.1c-3.4-3.4-5.1-7.5-5.1-12.2v-1.8h9.6v1.8c0,2.1,0.7,3.9,2.2,5.4
		c1.5,1.5,3.3,2.2,5.4,2.2c2.1,0,3.9-0.7,5.4-2.2c1.5-1.5,2.2-3.3,2.2-5.4V85h9.6V117.1z M148.4,94.6h-25v10.3h19v9.6h-19v19.8h-9.6
		V85h34.5V94.6z M83.6,141.3l0.8,0l0,5.7l2.7,0l0,0.7l-3.6,0L83.6,141.3z M96.5,144.4c0,2.2-1.3,3.4-3,3.4c-1.7,0-2.9-1.3-2.9-3.3
		c0-2,1.3-3.4,3-3.4C95.3,141.2,96.5,142.5,96.5,144.4z M91.5,144.5c0,1.4,0.7,2.6,2,2.6c1.3,0,2.1-1.2,2.1-2.7c0-1.3-0.7-2.6-2-2.6
		C92.2,141.9,91.5,143.1,91.5,144.5z M100.8,147.7l0-6.4h0.9l2.1,3.2c0.5,0.8,0.8,1.4,1.2,2.1l0,0c-0.1-0.9-0.1-1.6-0.1-2.6l0-2.7
		h0.8l0,6.4h-0.8l-2-3.3c-0.4-0.7-0.9-1.4-1.2-2.1l0,0c0,0.8,0.1,1.6,0.1,2.6l0,2.7H100.8z M110.3,141.4c0.5-0.1,1.1-0.1,1.8-0.1
		c1.2,0,2,0.3,2.6,0.8c0.6,0.5,0.9,1.3,0.9,2.3c0,1-0.3,1.9-0.9,2.5c-0.6,0.6-1.6,0.9-2.8,0.9c-0.6,0-1.1,0-1.5-0.1L110.3,141.4z
		 M111.1,147.1c0.2,0,0.5,0,0.8,0c1.8,0,2.7-1,2.7-2.7c0-1.5-0.8-2.5-2.6-2.5c-0.4,0-0.8,0-1,0.1L111.1,147.1z M125.4,144.4
		c0,2.2-1.3,3.4-3,3.4c-1.7,0-2.9-1.3-2.9-3.3c0-2,1.3-3.4,3-3.4C124.2,141.2,125.4,142.5,125.4,144.4z M120.4,144.5
		c0,1.4,0.7,2.6,2,2.6c1.3,0,2.1-1.2,2.1-2.7c0-1.3-0.7-2.6-2-2.6C121.1,141.9,120.4,143.1,120.4,144.5z M129.7,147.7l0-6.4l0.9,0
		l2.1,3.2c0.5,0.8,0.8,1.4,1.2,2.1l0,0c-0.1-0.9-0.1-1.6-0.1-2.6l0-2.7l0.8,0l0,6.4l-0.8,0l-2-3.3c-0.4-0.7-0.9-1.4-1.2-2.1l0,0
		c0,0.8,0.1,1.6,0.1,2.6l0,2.7L129.7,147.7z"/>
</g>
</svg>
